<?xml version="1.0" encoding="UTF-8" standalone="no"?>
<!DOCTYPE svg PUBLIC "-//W3C//DTD SVG 1.1//EN" "http://www.w3.org/Graphics/SVG/1.1/DTD/svg11.dtd">
<svg width="100%" height="100%" viewBox="0 0 366 366" version="1.1" xmlns="http://www.w3.org/2000/svg" xmlns:xlink="http://www.w3.org/1999/xlink" xml:space="preserve" xmlns:serif="http://www.serif.com/" style="fill-rule:evenodd;clip-rule:evenodd;stroke-linejoin:round;stroke-miterlimit:2;">
    <g transform="matrix(1,0,0,1,2,1)">
        <path d="M360.847,93.551L360.847,272.239C360.847,321.549 320.813,361.583 271.503,361.583L89.344,361.583C40.034,361.583 0,321.549 0,272.239L0,93.551C0,44.241 40.034,4.207 89.344,4.207L271.503,4.207C320.813,4.207 360.847,44.241 360.847,93.551Z" style="fill:rgb(235,235,235);"/>
    </g>
    <g transform="matrix(1,0,0,1,199,34)">
        <path d="M0,0C7.773,5.7 8.545,15.13 10.059,24.023C10.675,27.094 10.675,27.094 12.973,28.227C13.642,28.482 14.311,28.737 15,29C17.526,32.789 17.444,34.494 17,39C15.63,42.501 13.712,45.697 11.844,48.951C8.9,54.371 7.96,58.838 9.5,65C10.355,68.42 10.68,71.552 10,75C8.695,76.992 8.695,76.992 7.062,79.062C3.922,83.258 3.646,86.298 3.562,91.5C3.353,97.852 2.492,101.254 -1.766,105.969C-4.282,108.257 -6.927,110.304 -9.625,112.375C-16.018,117.521 -19.351,122.239 -20.287,130.542C-20.776,136.689 -20.956,142.835 -21,149L-19,149C-18.807,148.336 -18.613,147.672 -18.414,146.988C-18.154,146.105 -17.893,145.222 -17.625,144.312C-17.242,143.007 -17.242,143.007 -16.852,141.676C-16,139 -16,139 -14.918,136.574C-13.809,133.464 -13.761,130.795 -13.688,127.5C-13.262,121.38 -13.262,121.38 -11.062,118.188C-10.052,117.466 -9.041,116.744 -8,116C1.086,109.589 1.086,109.589 6,100C6.166,97.899 6.288,95.794 6.375,93.688C6.645,87.522 8.444,83.96 11.637,78.785C13.639,74.695 13.773,70.836 13.895,66.336C14,64 14,64 15,63C16.435,62.777 17.873,62.572 19.312,62.375C23.911,61.535 27.076,59.893 31,57.375C35.768,54.442 39.246,53.019 44.867,53.426C48.249,54.336 49.937,56.271 52,59C52.33,59.33 52.66,59.66 53,60C53.326,65.65 52.948,69.553 49.383,74.031C46.261,76.611 43.576,77.012 39.625,77.812C34.239,79.083 30.03,80.265 26.824,85.027C24.347,90.956 25.846,95.964 28.062,101.75C28.445,102.632 28.828,103.513 29.223,104.422C30.137,107.453 29.999,109.014 29,112C27.73,113.773 27.73,113.773 26.188,115.375C24.051,117.71 22.403,119.883 20.938,122.688C16.608,130.09 10.161,131.471 2.418,133.711C-2.07,135.052 -2.07,135.052 -5.852,137.688C-7.525,141.057 -8.935,144.476 -10.25,148C-10.531,148.712 -10.812,149.423 -11.102,150.156C-12.51,153.893 -13.227,156.194 -12,160C-11.08,160.208 -10.159,160.415 -9.211,160.629C5.399,164.185 19.747,169.512 28.25,182.688C34.478,193.786 38.317,207.165 34.938,219.75C34.329,221.513 33.68,223.263 33,225C32.594,226.061 32.188,227.122 31.77,228.215C24.309,245.265 9.001,256.571 -6.438,266.141C-13.433,270.159 -13.433,270.159 -17.508,276.812C-17.67,277.534 -17.833,278.256 -18,279C-18.611,281.379 -19.238,283.753 -19.875,286.125C-20.161,287.303 -20.447,288.481 -20.742,289.695C-22.177,293.465 -23.99,295.368 -27,298C-26.954,296.938 -26.907,295.876 -26.859,294.781C-26.272,284.778 -26.272,284.778 -29.52,275.574C-32.761,272.127 -36.856,270.187 -41,268C-63.314,255.924 -76.821,243.617 -84.648,218.957C-87.088,205.376 -83.552,192.827 -75.945,181.582C-73.348,178.135 -70.551,174.926 -67.602,171.777C-65.929,170.08 -65.929,170.08 -65,168C-62.571,166.927 -60.178,165.969 -57.688,165.062C-56.971,164.797 -56.255,164.532 -55.518,164.259C-49.447,162.061 -43.313,160.363 -37,159C-36.946,157.104 -36.907,155.209 -36.875,153.312C-36.852,152.257 -36.829,151.201 -36.805,150.113C-37.005,146.919 -37.767,144.922 -39,142C-39.368,139.856 -39.721,137.71 -40.062,135.562C-41.158,130.547 -42.167,128.15 -46.5,125.312C-47.985,124.513 -49.484,123.739 -51,123C-51.99,122.34 -52.98,121.68 -54,121C-55.134,120.711 -56.269,120.422 -57.438,120.125C-61.28,118.911 -62.778,118.333 -65,115C-65.418,112.694 -65.624,110.462 -65.727,108.121C-65.879,105.701 -65.879,105.701 -68,103C-68.789,102.701 -69.578,102.402 -70.391,102.094C-73.565,100.763 -74.729,99.254 -76.75,96.5C-77.343,95.706 -77.936,94.912 -78.547,94.094C-80.921,90.674 -81.067,89.11 -80.625,85C-80.535,84.113 -80.445,83.226 -80.352,82.312C-80,80 -80,80 -79,78C-78.635,72.44 -78.789,69.683 -82,65L-82,62C-82.99,61.67 -83.98,61.34 -85,61C-84.885,59.27 -84.757,57.541 -84.625,55.812C-84.555,54.85 -84.486,53.887 -84.414,52.895C-83.998,49.985 -83.201,47.671 -82,45C-74.673,43.905 -69.34,44.23 -63.274,48.528C-61.491,49.896 -59.741,51.298 -57.996,52.715C-55.295,54.775 -54.158,55.378 -51,56C-50.826,56.832 -50.826,56.832 -50.649,57.681C-50.121,60.204 -49.592,62.727 -49.062,65.25C-48.789,66.559 -48.789,66.559 -48.51,67.895C-48.333,68.739 -48.155,69.583 -47.973,70.453C-47.81,71.228 -47.648,72.003 -47.481,72.802C-47.163,74.256 -46.819,75.705 -46.45,77.148C-45.075,82.81 -45.882,87.705 -48,93C-48.683,97.011 -48.824,100.462 -46.867,104.113C-44.868,106.809 -42.715,109.268 -40.371,111.668C-32.002,120.498 -32.15,133.464 -31,145L-29,145C-29.052,141.332 -29.148,137.667 -29.25,134C-29.264,132.97 -29.278,131.94 -29.293,130.879C-29.595,121.389 -31.972,115.633 -38.625,108.812C-42.757,104.564 -44.78,101.462 -45.312,95.5C-45,92 -45,92 -43.5,89.562C-41.434,86.032 -41.457,82.945 -42,79C-42.487,77.302 -43.009,75.615 -43.562,73.938C-44.965,69.5 -45.516,66.548 -44,62C-42.309,59.855 -40.537,57.912 -38.594,55.992C-36.708,53.635 -36.274,51.984 -36,49C-36.33,48.34 -36.66,47.68 -37,47C-37.152,44.236 -37.231,41.515 -37.25,38.75C-37.271,37.998 -37.291,37.247 -37.312,36.473C-37.347,31.592 -36.826,28.159 -34,24C-31.695,22.383 -31.695,22.383 -29.125,21.125C-24.689,18.656 -22.547,16.505 -20.141,12.09C-15.616,3.801 -10.324,-3.372 0,0Z" style="fill:rgb(87,59,40);fill-rule:nonzero;"/>
    </g>
    <g transform="matrix(1,0,0,1,199,34)">
        <path d="M0,0C7.773,5.7 8.545,15.13 10.059,24.023C10.675,27.094 10.675,27.094 12.973,28.227C13.642,28.482 14.311,28.737 15,29C17.526,32.789 17.444,34.494 17,39C15.63,42.501 13.712,45.697 11.844,48.951C8.9,54.371 7.96,58.838 9.5,65C10.355,68.42 10.68,71.552 10,75C8.695,76.992 8.695,76.992 7.062,79.062C3.922,83.258 3.646,86.298 3.562,91.5C3.353,97.852 2.492,101.254 -1.766,105.969C-4.282,108.257 -6.927,110.304 -9.625,112.375C-16.018,117.521 -19.351,122.239 -20.287,130.542C-20.776,136.689 -20.956,142.835 -21,149L-19,149C-18.807,148.336 -18.613,147.672 -18.414,146.988C-18.154,146.105 -17.893,145.222 -17.625,144.312C-17.242,143.007 -17.242,143.007 -16.852,141.676C-16,139 -16,139 -14.918,136.574C-13.809,133.464 -13.761,130.795 -13.688,127.5C-13.262,121.38 -13.262,121.38 -11.062,118.188C-10.052,117.466 -9.041,116.744 -8,116C1.086,109.589 1.086,109.589 6,100C6.166,97.899 6.288,95.794 6.375,93.688C6.645,87.522 8.444,83.96 11.637,78.785C13.639,74.695 13.773,70.836 13.895,66.336C14,64 14,64 15,63C16.435,62.777 17.873,62.572 19.312,62.375C23.911,61.535 27.076,59.893 31,57.375C35.768,54.442 39.246,53.019 44.867,53.426C48.249,54.336 49.937,56.271 52,59C52.33,59.33 52.66,59.66 53,60C53.326,65.65 52.948,69.553 49.383,74.031C46.261,76.611 43.576,77.012 39.625,77.812C34.239,79.083 30.03,80.265 26.824,85.027C24.347,90.956 25.846,95.964 28.062,101.75C28.445,102.632 28.828,103.513 29.223,104.422C30.137,107.453 29.999,109.014 29,112C27.73,113.773 27.73,113.773 26.188,115.375C24.051,117.71 22.403,119.883 20.938,122.688C16.608,130.09 10.161,131.471 2.418,133.711C1.638,133.951 0.858,134.19 0.055,134.438C-0.652,134.642 -1.358,134.847 -2.086,135.059C-6.012,136.99 -7.412,140.603 -8.824,144.547C-9.101,145.308 -9.378,146.07 -9.663,146.854C-10.001,147.81 -10.339,148.766 -10.688,149.75C-11.781,152.803 -12.874,155.855 -14,159L-36,159C-36.268,156.546 -36.536,154.091 -36.812,151.562C-37.454,146.103 -38.293,141.041 -40.316,135.895C-41,134 -41,134 -41.316,131.461C-42.222,128.202 -43.52,127.535 -46.375,125.812C-47.166,125.324 -47.958,124.835 -48.773,124.332C-49.508,123.892 -50.243,123.453 -51,123C-51.99,122.34 -52.98,121.68 -54,121C-55.134,120.711 -56.269,120.422 -57.438,120.125C-61.28,118.911 -62.778,118.333 -65,115C-65.418,112.694 -65.624,110.462 -65.727,108.121C-65.879,105.701 -65.879,105.701 -68,103C-68.789,102.701 -69.578,102.402 -70.391,102.094C-73.565,100.763 -74.729,99.254 -76.75,96.5C-77.343,95.706 -77.936,94.912 -78.547,94.094C-80.921,90.674 -81.067,89.11 -80.625,85C-80.535,84.113 -80.445,83.226 -80.352,82.312C-80,80 -80,80 -79,78C-78.635,72.44 -78.789,69.683 -82,65L-82,62C-82.99,61.67 -83.98,61.34 -85,61C-84.885,59.27 -84.757,57.541 -84.625,55.812C-84.555,54.85 -84.486,53.887 -84.414,52.895C-83.998,49.985 -83.201,47.671 -82,45C-74.673,43.905 -69.34,44.23 -63.274,48.528C-61.491,49.896 -59.741,51.298 -57.996,52.715C-55.295,54.775 -54.158,55.378 -51,56C-50.826,56.832 -50.826,56.832 -50.649,57.681C-50.121,60.204 -49.592,62.727 -49.062,65.25C-48.789,66.559 -48.789,66.559 -48.51,67.895C-48.333,68.739 -48.155,69.583 -47.973,70.453C-47.81,71.228 -47.648,72.003 -47.481,72.802C-47.163,74.256 -46.819,75.705 -46.45,77.148C-45.075,82.81 -45.882,87.705 -48,93C-48.683,97.011 -48.824,100.462 -46.867,104.113C-44.868,106.809 -42.715,109.268 -40.371,111.668C-32.002,120.498 -32.15,133.464 -31,145L-29,145C-29.052,141.332 -29.148,137.667 -29.25,134C-29.264,132.97 -29.278,131.94 -29.293,130.879C-29.595,121.389 -31.972,115.633 -38.625,108.812C-42.757,104.564 -44.78,101.462 -45.312,95.5C-45,92 -45,92 -43.5,89.562C-41.434,86.032 -41.457,82.945 -42,79C-42.487,77.302 -43.009,75.615 -43.562,73.938C-44.965,69.5 -45.516,66.548 -44,62C-42.309,59.855 -40.537,57.912 -38.594,55.992C-36.708,53.635 -36.274,51.984 -36,49C-36.33,48.34 -36.66,47.68 -37,47C-37.152,44.236 -37.231,41.515 -37.25,38.75C-37.271,37.998 -37.291,37.247 -37.312,36.473C-37.347,31.592 -36.826,28.159 -34,24C-31.695,22.383 -31.695,22.383 -29.125,21.125C-24.689,18.656 -22.547,16.505 -20.141,12.09C-15.616,3.801 -10.324,-3.372 0,0Z" style="fill:rgb(110,122,69);fill-rule:nonzero;"/>
    </g>
    <g transform="matrix(1,0,0,1,117,79)">
        <path d="M0,0C7.327,-1.095 12.66,-0.77 18.726,3.528C20.509,4.896 22.259,6.298 24.004,7.715C26.705,9.775 27.842,10.378 31,11C31.174,11.832 31.174,11.832 31.351,12.681C31.879,15.204 32.408,17.727 32.938,20.25C33.211,21.559 33.211,21.559 33.49,22.895C33.667,23.739 33.845,24.583 34.027,25.453C34.19,26.228 34.352,27.003 34.519,27.802C34.838,29.258 35.181,30.709 35.548,32.154C37.214,38.957 35.734,44.735 33,51L31,51C31.342,57.883 33.615,62.229 38,67.438C42.573,72.916 45.036,77.739 45,85C44.52,87.309 44.52,87.309 44,89C43.526,88.299 43.051,87.597 42.562,86.875C39.186,83.087 35.271,80.682 31,78C30.01,77.34 29.02,76.68 28,76C26.866,75.711 25.731,75.422 24.562,75.125C20.72,73.911 19.222,73.333 17,70C16.582,67.694 16.376,65.462 16.273,63.121C16.121,60.701 16.121,60.701 14,58C13.211,57.701 12.422,57.402 11.609,57.094C8.435,55.763 7.271,54.254 5.25,51.5C4.657,50.706 4.064,49.912 3.453,49.094C1.079,45.674 0.933,44.11 1.375,40C1.465,39.113 1.555,38.226 1.648,37.312C2,35 2,35 3,33C3.365,27.44 3.211,24.683 0,20L0,17C-0.99,16.67 -1.98,16.34 -3,16C-2.885,14.27 -2.757,12.541 -2.625,10.812C-2.555,9.85 -2.486,8.887 -2.414,7.895C-1.998,4.985 -1.201,2.671 0,0Z" style="fill:rgb(109,122,69);fill-rule:nonzero;"/>
    </g>
    <g transform="matrix(1,0,0,1,207,47)">
        <path d="M0,0C0.17,0.987 0.34,1.975 0.516,2.992C0.758,4.274 1,5.555 1.25,6.875C1.598,8.789 1.598,8.789 1.953,10.742C2.638,14.067 2.638,14.067 4.984,15.258C5.65,15.503 6.315,15.748 7,16C9.526,19.789 9.444,21.494 9,26C7.63,29.501 5.712,32.697 3.844,35.951C0.9,41.371 -0.04,45.838 1.5,52C2.355,55.42 2.68,58.552 2,62C0.695,63.992 0.695,63.992 -0.938,66.062C-4.078,70.258 -4.354,73.298 -4.438,78.5C-4.647,84.852 -5.508,88.254 -9.766,92.969C-12.282,95.257 -14.927,97.304 -17.625,99.375C-24.018,104.521 -27.351,109.239 -28.287,117.542C-28.776,123.689 -28.956,129.835 -29,136L-27,136C-26.807,135.336 -26.613,134.672 -26.414,133.988C-26.154,133.105 -25.893,132.222 -25.625,131.312C-25.242,130.007 -25.242,130.007 -24.852,128.676C-24,126 -24,126 -22.918,123.574C-21.809,120.464 -21.761,117.795 -21.688,114.5C-21.262,108.38 -21.262,108.38 -19.062,105.188C-17.547,104.105 -17.547,104.105 -16,103C-14.305,101.676 -12.619,100.341 -10.938,99C-10.101,98.361 -9.264,97.721 -8.402,97.062C-5.899,94.913 -3.979,92.632 -2,90C-1,93 -1,93 -2.059,95.371C-4.351,98.475 -7.038,100.719 -10.062,103.062C-15.049,106.734 -15.049,106.734 -18,112C-18.241,114.821 -18.241,114.821 -18.125,117.75C-18.107,118.735 -18.089,119.72 -18.07,120.734C-18.047,121.482 -18.024,122.23 -18,123C-17.562,122.602 -17.123,122.203 -16.672,121.793C-11.623,117.575 -7.206,116.105 -0.84,114.684C3.322,113.682 5.639,112.731 9,110C10.236,107.45 11.164,104.955 11.98,102.242C13.233,99.487 14.332,99.229 17,98C17.816,94.941 17.816,94.941 18,92C18.99,91.67 19.98,91.34 21,91C21.844,93.7 22.303,95.242 22,98C20.477,100.254 18.742,102.072 16.84,104.016C15.118,105.873 14.027,107.514 12.875,109.75C8.619,117.127 2.095,118.489 -5.582,120.711C-6.362,120.951 -7.142,121.19 -7.945,121.438C-8.652,121.642 -9.358,121.847 -10.086,122.059C-14.012,123.99 -15.412,127.603 -16.824,131.547C-17.101,132.308 -17.378,133.07 -17.663,133.854C-18.001,134.81 -18.339,135.766 -18.688,136.75C-19.781,139.803 -20.874,142.855 -22,146L-44,146C-44.268,143.546 -44.536,141.091 -44.812,138.562C-45.367,133.773 -46.019,129.304 -47.688,124.75C-48.976,121.07 -49.128,120.422 -48,117C-47.34,117.66 -46.68,118.32 -46,119C-46.332,109.776 -48.603,104.411 -54.38,97.549C-57.882,93.349 -59.497,90.429 -60,85C-59.67,84.01 -59.34,83.02 -59,82C-58.34,82.33 -57.68,82.66 -57,83C-56.814,84.134 -56.629,85.269 -56.438,86.438C-55.276,91.732 -51.896,94.827 -48.191,98.605C-43.014,104.263 -42.049,109.675 -40.812,117.062C-40.635,118.056 -40.458,119.049 -40.275,120.072C-39.566,124.14 -39,127.856 -39,132L-37,132C-37.052,128.332 -37.148,124.667 -37.25,121C-37.264,119.97 -37.278,118.94 -37.293,117.879C-37.595,108.389 -39.972,102.633 -46.625,95.812C-50.757,91.564 -52.78,88.462 -53.312,82.5C-53,79 -53,79 -51.5,76.562C-49.434,73.032 -49.457,69.945 -50,66C-50.733,63.445 -51.564,60.934 -52.398,58.41C-53.265,54.936 -52.825,52.452 -52,49L-50,49C-49.879,49.822 -49.758,50.645 -49.633,51.492C-49.465,52.609 -49.298,53.725 -49.125,54.875C-48.948,56.069 -48.772,57.262 -48.59,58.492C-48.1,61.405 -47.444,64.152 -46.688,67C-45.515,72.357 -46.939,76.779 -48.566,81.922C-49.136,85.965 -48.183,87.594 -46,91C-43.786,93.624 -41.438,96.062 -39.059,98.535C-35.79,102.448 -34.797,106.373 -33.875,111.312C-33.707,112.196 -33.54,113.079 -33.367,113.988C-33.246,114.652 -33.125,115.316 -33,116C-32.587,115.082 -32.175,114.164 -31.75,113.219C-27.82,104.754 -23.818,97.465 -15.527,92.527C-12.812,90.845 -10.951,89.546 -9,87C-8.431,83.553 -8.251,80.389 -8.248,76.912C-8.213,71.624 -7.307,68.918 -4.148,64.801C-2.068,61.538 -1.9,57.802 -2,54C-2.316,52.662 -2.65,51.329 -3,50C-3.775,43.238 -2.422,38.785 1,33C3.415,28.617 5,25.071 5,20C2.972,17.239 2.972,17.239 1.348,15.602C-1.658,12.029 -2.901,7.59 -3.188,3C-3.095,2.01 -3.095,2.01 -3,1C-1,0 -1,0 0,0Z" style="fill:rgb(113,130,96);fill-rule:nonzero;"/>
    </g>
    <g transform="matrix(1,0,0,1,246,88)">
        <path d="M0,0C3.062,2.438 5.495,5.495 6,6C6.326,11.65 5.948,15.553 2.383,20.031C-0.739,22.611 -3.424,23.012 -7.375,23.812C-12.763,25.084 -16.948,26.275 -20.184,31.012C-22.65,37.017 -21.009,43.1 -19,49C-20.485,49.495 -20.485,49.495 -22,50C-25.177,44.043 -25.884,38.716 -25,32C-22.537,26.459 -18.427,23.43 -13,21C-9.891,20.157 -6.804,19.459 -3.637,18.871C-0.505,17.836 0.37,16.817 2,14C2.915,11.184 3.203,9.647 2.312,6.812C0.666,4.538 -0.32,3.869 -3,3C-6.569,2.451 -8.952,2.361 -12.09,4.273C-13.453,5.314 -14.794,6.386 -16.105,7.492C-20.19,10.743 -23.84,11.405 -29,12C-29.026,12.724 -29.052,13.449 -29.078,14.195C-29.443,20.419 -30.018,24.173 -34,29C-36.196,32.294 -36.167,32.938 -35.938,36.688C-35.809,41.826 -36.923,45.327 -39,50C-39.66,49.67 -40.32,49.34 -41,49C-40.976,39.574 -40.547,32.82 -35.363,24.68C-33.314,20.652 -33.226,16.796 -33.105,12.336C-33,10 -33,10 -32,9C-30.565,8.777 -29.127,8.572 -27.688,8.375C-23.089,7.535 -19.924,5.893 -16,3.375C-10.661,0.09 -6.236,-1.679 0,0Z" style="fill:rgb(122,138,104);fill-rule:nonzero;"/>
    </g>
    <g transform="matrix(1,0,0,1,207,47)">
        <path d="M0,0C0.17,0.987 0.34,1.975 0.516,2.992C0.758,4.274 1,5.555 1.25,6.875C1.598,8.789 1.598,8.789 1.953,10.742C2.638,14.067 2.638,14.067 4.984,15.258C5.65,15.503 6.315,15.748 7,16C9.526,19.789 9.444,21.494 9,26C7.63,29.501 5.712,32.697 3.844,35.951C0.9,41.371 -0.04,45.838 1.5,52C2.355,55.42 2.68,58.552 2,62C0.695,63.992 0.695,63.992 -0.938,66.062C-4.078,70.258 -4.354,73.298 -4.438,78.5C-4.647,84.849 -5.505,88.255 -9.766,92.965C-13.174,96.069 -16.842,98.829 -20.48,101.656C-23.755,104.702 -25.306,107.803 -26.902,111.934C-28.229,114.43 -29.403,115.008 -32,116C-28.923,104.339 -22.104,97.617 -13,90C-12.248,89.577 -11.497,89.154 -10.723,88.719C-8.444,86.445 -8.577,84.575 -8.547,81.453C-8.552,80.747 -8.557,80.04 -8.562,79.312C-8.426,73.411 -7.775,69.528 -4.148,64.801C-2.068,61.538 -1.9,57.802 -2,54C-2.316,52.662 -2.65,51.329 -3,50C-3.775,43.238 -2.422,38.785 1,33C3.415,28.617 5,25.071 5,20C2.972,17.239 2.972,17.239 1.348,15.602C-1.658,12.029 -2.901,7.59 -3.188,3C-3.095,2.01 -3.095,2.01 -3,1C-1,0 -1,0 0,0Z" style="fill:rgb(119,135,101);fill-rule:nonzero;"/>
    </g>
    <g transform="matrix(1,0,0,1,199,34)">
        <path d="M0,0C3.203,2.577 5.574,5.111 7,9L7,12C6.01,12.33 5.02,12.66 4,13C3.66,11.36 3.66,11.36 3.312,9.688C2.328,5.959 2.328,5.959 -0.25,4.062C-3.54,2.791 -5.505,2.418 -9,3C-13.007,6.427 -15.098,9.821 -17.312,14.562C-20.038,19.876 -21.745,21.92 -27.199,24.027C-30.236,25.668 -31.189,27.999 -32.391,31.141C-33.644,37.021 -33.283,43.027 -33,49L-36,49C-37.612,45.776 -37.226,42.288 -37.25,38.75C-37.271,37.998 -37.291,37.247 -37.312,36.473C-37.347,31.592 -36.826,28.159 -34,24C-31.695,22.383 -31.695,22.383 -29.125,21.125C-24.689,18.656 -22.547,16.505 -20.141,12.09C-15.64,3.844 -10.296,-3.439 0,0Z" style="fill:rgb(124,139,107);fill-rule:nonzero;"/>
    </g>
    <g transform="matrix(1,0,0,1,224,96)">
        <path d="M0,0L0,3C-2.31,3.33 -4.62,3.66 -7,4C-7.026,4.724 -7.052,5.449 -7.078,6.195C-7.443,12.419 -8.018,16.173 -12,21C-14.196,24.294 -14.167,24.938 -13.938,28.688C-13.809,33.826 -14.923,37.327 -17,42C-17.66,41.67 -18.32,41.34 -19,41C-18.976,31.574 -18.547,24.82 -13.363,16.68C-11.314,12.652 -11.226,8.796 -11.105,4.336C-11,2 -11,2 -10,1C-6.627,0.438 -3.422,0 0,0Z" style="fill:rgb(122,137,103);fill-rule:nonzero;"/>
    </g>
    <g transform="matrix(1,0,0,1,155,96)">
        <path d="M0,0L2,0C2.121,0.822 2.242,1.645 2.367,2.492C2.535,3.609 2.702,4.725 2.875,5.875C3.05,7.073 3.226,8.27 3.406,9.504C3.895,12.381 4.573,15.018 5.375,17.812C6.894,24.868 4.339,32.345 2,39C1.01,39.495 1.01,39.495 0,40C-1.192,36.424 -1.259,33.759 -1,30C-0.505,29.196 -0.01,28.391 0.5,27.562C2.566,24.032 2.543,20.945 2,17C1.267,14.445 0.436,11.934 -0.398,9.41C-1.265,5.936 -0.825,3.452 0,0Z" style="fill:rgb(122,138,104);fill-rule:nonzero;"/>
    </g>
    <g transform="matrix(1,0,0,1,227,138)">
        <path d="M0,0C2,3 2,3 2,5.25C0.778,8.611 -1.059,10.553 -3.453,13.164C-4.965,14.958 -5.992,16.671 -7.062,18.75C-9.077,22.129 -10.495,23.345 -14,25L-14,21C-13.422,20.443 -12.845,19.886 -12.25,19.312C-9.477,16.462 -8.43,13.605 -7.027,9.926C-6,8 -6,8 -3,7C-2.876,6.031 -2.752,5.061 -2.625,4.062C-2.419,3.052 -2.212,2.041 -2,1C-1.34,0.67 -0.68,0.34 0,0Z" style="fill:rgb(117,134,100);fill-rule:nonzero;"/>
    </g>
    <g transform="matrix(1,0,0,1,148,100)">
        <path d="M0,0L2,0C6.999,19.252 6.999,19.252 3,27L0,27C0.913,20.348 0.913,20.348 1.688,17.25C2.293,14.72 2.293,14.72 0,12C-0.195,9.082 -0.195,9.082 -0.125,5.812C-0.107,4.726 -0.089,3.639 -0.07,2.52C-0.047,1.688 -0.024,0.857 0,0Z" style="fill:rgb(132,147,116);fill-rule:nonzero;"/>
    </g>
    <g transform="matrix(1,0,0,1,207,47)">
        <path d="M0,0C0.17,0.987 0.34,1.975 0.516,2.992C0.758,4.274 1,5.555 1.25,6.875C1.482,8.151 1.714,9.427 1.953,10.742C2.638,14.067 2.638,14.067 4.984,15.258C5.65,15.503 6.315,15.748 7,16C9.429,19.644 9.162,21.712 9,26C6.358,23.61 4.778,21.077 3,18C2.582,17.411 2.165,16.822 1.734,16.215C-1.74,11.192 -2.845,7.09 -3,1C-1,0 -1,0 0,0Z" style="fill:rgb(127,142,110);fill-rule:nonzero;"/>
    </g>
    <g transform="matrix(1,0,0,1,191,33)">
        <path d="M0,0C7.213,0.367 7.213,0.367 10.875,3.312C13.576,6.728 15,8.617 15,13C14.01,13.33 13.02,13.66 12,14C11.66,12.36 11.66,12.36 11.312,10.688C10.34,6.943 10.34,6.943 7.688,5.125C5.101,4.042 2.77,3.396 0,3L0,0Z" style="fill:rgb(127,142,110);fill-rule:nonzero;"/>
    </g>
    <g transform="matrix(1,0,0,1,158,164)">
        <path d="M0,0C3.095,2.786 4.713,5.039 6,9C6.247,9.722 6.495,10.444 6.75,11.188C6.832,11.786 6.915,12.384 7,13C6.34,13.66 5.68,14.32 5,15L5,13C4.01,12.67 3.02,12.34 2,12C0.657,7.69 0,4.522 0,0Z" style="fill:rgb(127,142,108);fill-rule:nonzero;"/>
    </g>
    <g transform="matrix(1,0,0,1,248,105)">
        <path d="M0,0C0.33,0.66 0.66,1.32 1,2C-2.773,5.945 -2.773,5.945 -6.164,6.098C-7.382,6.08 -7.382,6.08 -8.625,6.062C-9.851,6.049 -9.851,6.049 -11.102,6.035C-12.041,6.018 -12.041,6.018 -13,6C-12.67,5.01 -12.34,4.02 -12,3C-10.826,2.801 -10.826,2.801 -9.629,2.598C-8.617,2.421 -7.605,2.244 -6.562,2.062C-5.553,1.888 -4.544,1.714 -3.504,1.535C-1.071,1.252 -1.071,1.252 0,0Z" style="fill:rgb(113,130,95);fill-rule:nonzero;"/>
    </g>
    <g transform="matrix(1,0,0,1,179,47)">
        <path d="M0,0L1,0C0.875,3.312 0.875,3.312 0,7C-3.211,9.164 -5.124,10 -9,10L-9,8C-7,6.667 -5,5.333 -3,4C-1.237,1.874 -1.237,1.874 0,0Z" style="fill:rgb(115,131,96);fill-rule:nonzero;"/>
    </g>
    <g transform="matrix(1,0,0,1,218,152)">
        <path d="M0,0C0.33,0.66 0.66,1.32 1,2L3,2C1.445,5.817 -1.036,8.192 -4,11C-4.75,9.25 -4.75,9.25 -5,7C-3.125,4.938 -3.125,4.938 -1,3C-0.67,2.01 -0.34,1.02 0,0Z" style="fill:rgb(124,140,107);fill-rule:nonzero;"/>
    </g>
    <g transform="matrix(1,0,0,1,150,118)">
        <path d="M0,0L2,0C2.125,6.75 2.125,6.75 1,9L-2,9C-1.125,2.25 -1.125,2.25 0,0Z" style="fill:rgb(120,136,101);fill-rule:nonzero;"/>
    </g>
    <g transform="matrix(1,0,0,1,163,70)">
        <path d="M0,0L1,0C2.452,4.537 3.235,8.181 3,13L0,13L0,0Z" style="fill:rgb(115,132,96);fill-rule:nonzero;"/>
    </g>
    <g transform="matrix(1,0,0,1,206,121)">
        <path d="M0,0L1,0C1.061,0.699 1.121,1.397 1.184,2.117C1.267,3.027 1.351,3.937 1.438,4.875C1.559,6.232 1.559,6.232 1.684,7.617C1.87,10.011 1.87,10.011 3,12C2.062,14.625 2.062,14.625 1,17C0.34,16.67 -0.32,16.34 -1,16C-0.67,10.72 -0.34,5.44 0,0Z" style="fill:rgb(147,159,132);fill-rule:nonzero;"/>
    </g>
    <g transform="matrix(1,0,0,1,207,47)">
        <path d="M0,0C0.33,2.97 0.66,5.94 1,9C-1,7.812 -1,7.812 -3,6C-3.25,3.312 -3.25,3.312 -3,1C-1,0 -1,0 0,0Z" style="fill:rgb(134,149,118);fill-rule:nonzero;"/>
    </g>
    <g transform="matrix(1,0,0,1,225,117)">
        <path d="M0,0C1,2 1,2 0.441,3.945C0.151,4.665 -0.139,5.384 -0.438,6.125C-0.725,6.849 -1.012,7.574 -1.309,8.32C-1.537,8.875 -1.765,9.429 -2,10L-3,10C-3.369,3.477 -3.369,3.477 -1.5,1.062C-1.005,0.712 -0.51,0.361 0,0Z" style="fill:rgb(106,125,91);fill-rule:nonzero;"/>
    </g>
    <g transform="matrix(1,0,0,1,235,109)">
        <path d="M0,0L0,2C1.32,2.33 2.64,2.66 4,3C-0.455,3.495 -0.455,3.495 -5,4C-4.67,3.01 -4.34,2.02 -4,1C-2,0 -2,0 0,0Z" style="fill:rgb(130,145,114);fill-rule:nonzero;"/>
    </g>
</svg>
