<svg xmlns="http://www.w3.org/2000/svg" viewBox="0 0 64 64">
  <!-- Lichtgroene achtergrond -->
  <rect width="64" height="64" rx="16" fill="#E8F0E8" />
  
  <!-- Knol Bladeren -->
  <path d="M32 14 Q18 2 22 22 Q32 26 32 32 Q32 26 42 22 Q46 2 32 14 Z" fill="#5A8F5A"/>
  <path d="M32 14 Q14 8 18 26 Q32 28 32 32" fill="none" stroke="#4A7A4A" stroke-width="2.5" stroke-linecap="round"/>
  <path d="M32 14 Q50 8 46 26 Q32 28 32 32" fill="none" stroke="#4A7A4A" stroke-width="2.5" stroke-linecap="round"/>

  <!-- Knol Lichaam (Wortel/Radijs/Biet) -->
  <path d="M18 30 C18 18 46 18 46 30 C46 44 34 52 32 58 C30 52 18 44 18 30 Z" fill="#E67E94"/>
  <path d="M22 30 C22 22 42 22 42 30 C42 41 34 47 32 53 C30 47 22 41 22 30 Z" fill="#F092A5"/>
  
  <!-- Knol Wortelpuntje -->
  <path d="M32 56 L32 62" stroke="#E67E94" stroke-width="2" stroke-linecap="round"/>
  
  <!-- Highlight -->
  <path d="M24 28 Q28 22 34 26" fill="none" stroke="#FFFFFF" stroke-width="2" stroke-linecap="round" opacity="0.6"/>
</svg>